<?xml version="1.0" encoding="UTF-8" standalone="no"?>
<svg width="24px" height="16px" viewBox="0 0 24 16" version="1.1" xmlns="http://www.w3.org/2000/svg" xmlns:xlink="http://www.w3.org/1999/xlink" xmlns:sketch="http://www.bohemiancoding.com/sketch/ns">
    <!-- Generator: Sketch 3.4 (15575) - http://www.bohemiancoding.com/sketch -->
    <title>messages-new</title>
    <desc>Created with Sketch.</desc>
    <defs></defs>
    <g id="Time-Line" stroke="none" stroke-width="1" fill="none" fill-rule="evenodd" sketch:type="MSPage">
        <g id="messages-new" sketch:type="MSLayerGroup" transform="translate(-9.000000, -24.000000)">
            <rect id="Rectangle-11" sketch:type="MSShapeGroup" x="0" y="0" width="42" height="64"></rect>
            <g id="email" transform="translate(9.000000, 24.000000)" sketch:type="MSShapeGroup">
                <circle id="Oval" fill="#F6402B" cx="20.8" cy="3.2" r="3.2"></circle>
                <path d="M10.45,3.2 L0.88995,3.2 C0.33495,3.2 0.19505,3.35 0.325,3.725 C0.4,3.945 0.745,4.13 0.95,4.235 C1.5,4.525 9.13995,8.69 9.425,8.84 C9.70995,8.99 10,9.06 10.45,9.06 C10.9,9.06 11.18995,8.99 11.475,8.84 C11.6645,8.74025 15.10625,6.86515 17.55295,5.53465 C17.0797,4.87755 16.8,4.07165 16.8,3.2 L10.45,3.2 Z M13.85995,8.865 L17.97,13.49 C18.07,13.59 18.1149,13.71 18.05995,13.77005 C18,13.82505 17.87,13.79505 17.76495,13.70005 L12.83495,9.54005 C12.08995,10.0201 11.56495,10.35005 11.475,10.40005 C11.08995,10.59505 10.82,10.62005 10.45,10.62005 C10.08,10.62005 9.80995,10.59505 9.425,10.40005 C9.33,10.35005 8.80995,10.02005 8.06495,9.54005 L3.13495,13.70005 C3.03495,13.80005 2.9,13.83005 2.83995,13.77005 C2.78,13.715 2.825,13.59 2.925,13.49 L7.03,8.865 C4.595,7.29 0.875,4.67 0.46495,4.46 C0.025,4.235 0,4.5 0,4.705 L0,14.955 C0,15.42 0.68495,16 1.175,16 L10.45,16 L19.725,16 C20.21495,16 20.8,15.415 20.8,14.955 L20.8,7.2 C19.7137,7.2 18.7292,6.76635 18.0084,6.06355 C16.70835,6.95865 15.118,8.05125 13.85995,8.865 Z" id="Shape" fill="#DEE0E3"></path>
            </g>
        </g>
    </g>
</svg>