<?xml version="1.0" encoding="UTF-8" standalone="no"?>
<svg width="21px" height="13px" viewBox="0 0 21 13" version="1.1" xmlns="http://www.w3.org/2000/svg" xmlns:xlink="http://www.w3.org/1999/xlink" xmlns:sketch="http://www.bohemiancoding.com/sketch/ns">
    <!-- Generator: Sketch 3.4 (15575) - http://www.bohemiancoding.com/sketch -->
    <title>messages</title>
    <desc>Created with Sketch.</desc>
    <defs></defs>
    <g id="Time-Line" stroke="none" stroke-width="1" fill="none" fill-rule="evenodd" sketch:type="MSPage">
        <g id="messages" sketch:type="MSLayerGroup" transform="translate(-9.000000, -27.000000)">
            <rect id="Rectangle-11" sketch:type="MSShapeGroup" x="0" y="0" width="42" height="64"></rect>
            <path d="M19.225,34.2275279 C19.4463972,34.202942 19.7851962,34.147438 20.025,34.0259632 C20.12,33.9759632 20.64005,33.6459632 21.38505,33.1659632 L26.31505,37.3259632 C26.41505,37.4259632 26.55,37.4559632 26.61005,37.3959632 C26.67,37.3409132 26.625,37.2159132 26.525,37.1159132 L22.42,32.4909132 C24.855,30.9159132 28.575,28.2959132 28.98505,28.0859132 C29.425,27.8609132 29.45,28.1259132 29.45,28.3309132 L29.45,38.5809132 C29.45,39.0459132 28.76505,39.6259132 28.275,39.6259132 L19.225,39.6259132 L10.175,39.6259132 C9.68495,39.6259132 9,39.0459132 9,38.5809132 L9,28.3309132 C9,28.1259132 9.025,27.8609132 9.46495,28.0859132 C9.875,28.2959132 13.595,30.9159132 16.03,32.4909132 L11.925,37.1159132 C11.825,37.2159132 11.78,37.3409132 11.83995,37.3959632 C11.9,37.4559632 12.03495,37.4259632 12.13495,37.3259632 L17.06495,33.1659632 C17.80995,33.6459632 18.33,33.9759632 18.425,34.0259632 C18.6648038,34.147438 19.0036028,34.202942 19.225,34.2275279 L19.225,34.2275279 Z M19.1850408,32.8577578 C19.1801688,32.8592469 19.1751831,32.86 19.1700817,32.86 C18.7200817,32.86 18.4300317,32.79 18.1450817,32.64 C17.8600317,32.49 10.2200817,28.325 9.67008165,28.035 C9.46508165,27.93 9.12008165,27.745 9.04508165,27.525 C8.91513165,27.15 9.05503165,27 9.61003165,27 L19.1700817,27 C19.1700817,27 19.175695,27.073098 19.1850408,27.2029658 C19.1943867,27.073098 19.2,27 19.2,27 L28.76005,27 C29.31505,27 29.45495,27.15 29.325,27.525 C29.25,27.745 28.905,27.93 28.7,28.035 C28.15,28.325 20.51005,32.49 20.225,32.64 C19.94005,32.79 19.65,32.86 19.2,32.86 C19.1948986,32.86 19.1899129,32.8592469 19.1850408,32.8577578 L19.1850408,32.8577578 Z" id="Shape" fill="#D8D8D8" sketch:type="MSShapeGroup"></path>
        </g>
    </g>
</svg>