<?xml version="1.0" encoding="UTF-8" standalone="no"?>
<svg width="42px" height="42px" viewBox="0 0 42 42" version="1.1" xmlns="http://www.w3.org/2000/svg" xmlns:xlink="http://www.w3.org/1999/xlink" xmlns:sketch="http://www.bohemiancoding.com/sketch/ns">
    <!-- Generator: Sketch 3.4 (15575) - http://www.bohemiancoding.com/sketch -->
    <title>icons_timeline_update</title>
    <desc>Created with Sketch.</desc>
    <defs></defs>
    <g id="Style-Guide" stroke="none" stroke-width="1" fill="none" fill-rule="evenodd" sketch:type="MSPage">
        <g id="icons_timeline_update" sketch:type="MSLayerGroup">
            <g id="Oval-1-+-ic_email_black_24px-Copy" fill="#D8D8D8" sketch:type="MSShapeGroup">
                <circle id="Oval-1" cx="21" cy="21" r="21"></circle>
            </g>
            <g id="ic_new_releases_black_24px" transform="translate(9.000000, 9.000000)" sketch:type="MSShapeGroup">
                <g id="Group">
                    <path d="M0,0 L24,0 L24,24 L0,24 L0,0 Z" id="Shape"></path>
                    <path d="M23,12 L20.56,9.22 L20.9,5.54 L17.29,4.72 L15.4,1.54 L12,3 L8.6,1.54 L6.71,4.72 L3.1,5.53 L3.44,9.21 L1,12 L3.44,14.78 L3.1,18.47 L6.71,19.29 L8.6,22.47 L12,21 L15.4,22.46 L17.29,19.28 L20.9,18.46 L20.56,14.78 L23,12 L23,12 Z M13,17 L11,17 L11,15 L13,15 L13,17 L13,17 Z M13,13 L11,13 L11,7 L13,7 L13,13 L13,13 Z" id="Shape" fill="#465164"></path>
                </g>
            </g>
        </g>
    </g>
</svg>