<?xml version="1.0" encoding="UTF-8" standalone="no"?>
<svg width="42px" height="42px" viewBox="0 0 42 42" version="1.1" xmlns="http://www.w3.org/2000/svg" xmlns:xlink="http://www.w3.org/1999/xlink" xmlns:sketch="http://www.bohemiancoding.com/sketch/ns">
    <!-- Generator: Sketch 3.4 (15575) - http://www.bohemiancoding.com/sketch -->
    <title>icons_timeline_notafi</title>
    <desc>Created with Sketch.</desc>
    <defs></defs>
    <g id="Style-Guide" stroke="none" stroke-width="1" fill="none" fill-rule="evenodd" sketch:type="MSPage">
        <g id="icons_timeline_notafi" sketch:type="MSLayerGroup">
            <g id="Oval-1-+-Football" fill="#D8D8D8" sketch:type="MSShapeGroup">
                <circle id="Oval-1" cx="21" cy="21" r="21"></circle>
            </g>
            <g id="Icon-Copy-2" transform="translate(11.000000, 11.000000)" sketch:type="MSShapeGroup">
                <path d="M10.3747835,13.3208633 L10.3747835,19.9880096 L9.22370432,19.9880096 C9.16231344,19.98753 8.55320073,19.9745803 8.22466356,19.4844125 C8.06159401,19.241247 8.04192974,18.9913669 8.04097051,18.8690647 L8.04097051,12.2023981 L9.19204965,12.2023981 C9.25344053,12.2023981 9.86255324,12.2158273 10.1910904,12.7059952 C10.35416,12.9486811 10.3738242,13.1990408 10.3747835,13.3208633 Z M3.04512878,5.75179856 L3.04512878,19.9997602 L1.77126787,19.9997602 C1.70316236,19.9992806 1.02882183,19.9752998 0.665272668,19.0784173 C0.484936937,18.6333333 0.463354203,18.176259 0.461915354,17.9522782 L0.461915354,6.87122302 C0.462874587,6.74892086 0.482538855,6.49904077 0.6456084,6.2558753 C0.97414557,5.76570743 1.58325828,5.75275779 1.64464917,5.75227818 L1.76071631,5.75227818 C1.76839017,5.75179856 1.77606404,5.75179856 1.78277866,5.75179856 L3.04512878,5.75179856 Z M7.83505684,5.75179856 L7.83505684,7.02565947 C7.83505684,7.09376499 7.82306643,7.76810552 7.3779825,8.13165468 C7.15783862,8.31199041 6.93050049,8.33357314 6.81970912,8.33501199 L3.33289857,8.33501199 L3.33289857,5.75179856 L7.83505684,5.75179856 Z M7.01635181,10.5834532 L7.01635181,11.8577938 C7.01635181,11.9254197 7.0072391,12.5997602 6.6719873,12.9633094 C6.50604005,13.1436451 6.33481703,13.1657074 6.2513638,13.1666667 L3.33289857,13.1666667 L3.33289857,10.5834532 L7.01635181,10.5834532 Z" id="Words" fill="#465164"></path>
                <path d="M9.4041072,9.54631655 C8.77043814,9.43682014 8.1676084,9.86243165 8.05815996,10.4955731 C7.94866356,11.1292422 8.37374749,11.731976 9.00741655,11.8415204 C9.64108562,11.9510168 10.2432919,11.5258369 10.3528362,10.8921679 C10.4622367,10.2590264 10.0377763,9.65581295 9.4041072,9.54631655 M18.3197907,12.7524077 C18.2551384,13.1264125 18.5064094,13.4827194 18.8804142,13.5473237 C19.2549945,13.6120719 19.6107259,13.360705 19.6753782,12.9867002 C20.7285197,6.89168825 16.6426684,1.09801918 10.5477043,0.0445899281 C10.1736995,-0.0200623501 9.8174885,0.230729017 9.75283622,0.604733813 C9.68813598,0.979266187 9.93940696,1.33557314 10.3134118,1.40022542 C12.9878482,1.86300719 15.216865,3.36219185 16.6674645,5.41830695 C18.1174405,7.47490168 18.7815652,10.0772518 18.3197907,12.7524077 M15.0714453,12.1909688 C15.006841,12.5649736 15.2575365,12.9211847 15.6315892,12.9858369 C16.0066492,13.0506331 16.3624285,12.7992662 16.4270808,12.4252614 C17.1703422,8.1248777 14.2869369,4.03648441 9.9863614,3.29264748 C9.61230864,3.2279952 9.25614557,3.47878657 9.19139737,3.85331894 C9.12664917,4.22785132 9.37801607,4.5836307 9.75206883,4.64828297 C11.5303902,4.9556211 13.0089034,5.95144844 13.9736995,7.31811511 C14.936865,8.68511751 15.3782079,10.4128393 15.0714453,12.1909688 M11.8228602,11.62953 C12.1237235,9.87116067 10.9473206,8.20377458 9.1904861,7.89739568 C8.8164813,7.83274341 8.56525828,7.47590887 8.62991056,7.10190408 C8.69465876,6.7273717 9.05086979,6.4766283 9.42487459,6.54123261 C11.9319729,6.97514149 13.6114933,9.35682014 13.1790233,11.8639185 C13.114371,12.2379233 12.758064,12.4891942 12.3835317,12.424446 C12.0095269,12.3597938 11.7582079,12.0035348 11.8228602,11.62953" id="Icon" fill="#252E3C"></path>
            </g>
        </g>
    </g>
</svg>