<?xml version="1.0" encoding="UTF-8" standalone="no"?>
<svg width="19px" height="21px" viewBox="0 0 19 21" version="1.1" xmlns="http://www.w3.org/2000/svg" xmlns:xlink="http://www.w3.org/1999/xlink" xmlns:sketch="http://www.bohemiancoding.com/sketch/ns">
    <!-- Generator: Sketch 3.4 (15575) - http://www.bohemiancoding.com/sketch -->
    <title>Universities</title>
    <desc>Created with Sketch.</desc>
    <defs></defs>
    <g id="Time-Line" stroke="none" stroke-width="1" fill="none" fill-rule="evenodd" sketch:type="MSPage">
        <g id="Desktop---Time-Line" sketch:type="MSArtboardGroup" transform="translate(-706.000000, -21.000000)">
            <g id="Desktop-/-Header" sketch:type="MSLayerGroup">
                <g id="Universities" transform="translate(695.000000, 0.000000)" sketch:type="MSShapeGroup">
                    <rect id="Rectangle-11" x="0" y="0" width="42" height="64"></rect>
                    <g id="ic_account_balance_black_24px" transform="translate(9.000000, 20.000000)">
                        <g id="Group">
                            <path d="M0,0 L24,0 L24,24 L0,24 L0,0 Z" id="Shape"></path>
                            <path d="M4,10 L4,17 L7,17 L7,10 L4,10 L4,10 Z M10,10 L10,17 L13,17 L13,10 L10,10 L10,10 Z M2,22 L21,22 L21,19 L2,19 L2,22 L2,22 Z M16,10 L16,17 L19,17 L19,10 L16,10 L16,10 Z M11.5,1 L2,6 L2,8 L21,8 L21,6 L11.5,1 L11.5,1 Z" id="Shape" fill="#DEE0E3"></path>
                        </g>
                    </g>
                </g>
            </g>
        </g>
    </g>
</svg>