<?xml version="1.0" encoding="UTF-8" standalone="no"?>
<svg width="42px" height="42px" viewBox="0 0 42 42" version="1.1" xmlns="http://www.w3.org/2000/svg" xmlns:xlink="http://www.w3.org/1999/xlink" xmlns:sketch="http://www.bohemiancoding.com/sketch/ns">
    <!-- Generator: Sketch 3.4 (15575) - http://www.bohemiancoding.com/sketch -->
    <title>icons_timeline_message</title>
    <desc>Created with Sketch.</desc>
    <defs></defs>
    <g id="Style-Guide" stroke="none" stroke-width="1" fill="none" fill-rule="evenodd" sketch:type="MSPage">
        <g id="icons_timeline_message" sketch:type="MSLayerGroup">
            <circle id="Oval-1" fill="#D8D8D8" sketch:type="MSShapeGroup" cx="21" cy="21" r="21"></circle>
            <g id="ic_email_black_24px" transform="translate(9.000000, 9.000000)" sketch:type="MSShapeGroup">
                <g id="Group">
                    <path d="M20,4 L4,4 C2.9,4 2.01,4.9 2.01,6 L2,18 C2,19.1 2.9,20 4,20 L20,20 C21.1,20 22,19.1 22,18 L22,6 C22,4.9 21.1,4 20,4 L20,4 Z M20,8 L12,13 L4,8 L4,6 L12,11 L20,6 L20,8 L20,8 Z" id="Shape" fill="#465164"></path>
                    <path d="M0,0 L24,0 L24,24 L0,24 L0,0 Z" id="Shape"></path>
                </g>
            </g>
        </g>
    </g>
</svg>