<?xml version="1.0" encoding="UTF-8" standalone="no"?>
<svg width="42px" height="42px" viewBox="0 0 42 42" version="1.1" xmlns="http://www.w3.org/2000/svg" xmlns:xlink="http://www.w3.org/1999/xlink" xmlns:sketch="http://www.bohemiancoding.com/sketch/ns">
    <!-- Generator: Sketch 3.4 (15575) - http://www.bohemiancoding.com/sketch -->
    <title>icons_timeline_endorse</title>
    <desc>Created with Sketch.</desc>
    <defs></defs>
    <g id="Style-Guide" stroke="none" stroke-width="1" fill="none" fill-rule="evenodd" sketch:type="MSPage">
        <g id="icons_timeline_endorse" sketch:type="MSLayerGroup">
            <g id="Oval-1-+-ic_email_black_24px-Copy" fill="#D8D8D8" sketch:type="MSShapeGroup">
                <circle id="Oval-1" cx="21" cy="21" r="21"></circle>
            </g>
            <g id="ic_thumb_up_black_24px" transform="translate(9.000000, 9.000000)" sketch:type="MSShapeGroup">
                <g id="Group">
                    <path d="M0,0 L24,0 L24,24 L0,24 L0,0 Z" id="Shape"></path>
                    <path d="M1,21 L5,21 L5,9 L1,9 L1,21 L1,21 Z M23,10 C23,8.9 22.1,8 21,8 L14.69,8 L15.64,3.43 L15.67,3.11 C15.67,2.7 15.5,2.32 15.23,2.05 L14.17,1 L7.59,7.59 C7.22,7.95 7,8.45 7,9 L7,19 C7,20.1 7.9,21 9,21 L18,21 C18.83,21 19.54,20.5 19.84,19.78 L22.86,12.73 C22.95,12.5 23,12.26 23,12 L23,10.09 L22.99,10.08 L23,10 L23,10 Z" id="Shape" fill="#465164"></path>
                </g>
            </g>
        </g>
    </g>
</svg>