<?xml version="1.0" encoding="UTF-8" standalone="no"?>
<svg width="32px" height="32px" viewBox="0 0 32 32" version="1.1" xmlns="http://www.w3.org/2000/svg" xmlns:xlink="http://www.w3.org/1999/xlink" xmlns:sketch="http://www.bohemiancoding.com/sketch/ns">
    <!-- Generator: Sketch 3.4 (15575) - http://www.bohemiancoding.com/sketch -->
    <title>Logo</title>
    <desc>Created with Sketch.</desc>
    <defs></defs>
    <g id="Time-Line" stroke="none" stroke-width="1" fill="none" fill-rule="evenodd" sketch:type="MSPage">
        <g id="Desktop---Time-Line" sketch:type="MSArtboardGroup" transform="translate(-37.000000, -16.000000)">
            <g id="Desktop-/-Header" sketch:type="MSLayerGroup">
                <g id="Logo" transform="translate(32.000000, 0.000000)" sketch:type="MSShapeGroup">
                    <rect id="Rectangle-11" x="0" y="0" width="42" height="64"></rect>
                    <g id="Icon-Copy-2" transform="translate(5.000000, 16.000000)">
                        <path d="M16.5996535,21.3133813 L16.5996535,31.9808153 L14.7579269,31.9808153 C14.6597015,31.980048 13.6851212,31.9593285 13.1594617,31.17506 C12.8985504,30.7859952 12.8670876,30.3861871 12.8655528,30.1905036 L12.8655528,19.5238369 L14.7072794,19.5238369 C14.8055049,19.5238369 15.7800852,19.5453237 16.3057447,20.3295923 C16.5666559,20.7178897 16.5981188,21.1184652 16.5996535,21.3133813 Z M4.87220605,9.2028777 L4.87220605,31.9996163 L2.8340286,31.9996163 C2.72505977,31.9988489 1.64611493,31.9604796 1.06443627,30.5254676 C0.775899099,29.8133333 0.741366725,29.0820144 0.739064567,28.7236451 L0.739064567,10.9939568 C0.740599339,10.7982734 0.772062169,10.3984652 1.03297344,10.0094005 C1.55863291,9.22513189 2.53321325,9.20441247 2.63143867,9.20364508 L2.8171461,9.20364508 C2.82942428,9.2028777 2.84170246,9.2028777 2.85244586,9.2028777 L4.87220605,9.2028777 Z M12.5360909,9.2028777 L12.5360909,11.2410552 C12.5360909,11.350024 12.5169063,12.4289688 11.804772,13.0106475 C11.4525418,13.2991847 11.0888008,13.333717 10.9115346,13.3360192 L5.33263771,13.3360192 L5.33263771,9.2028777 L12.5360909,9.2028777 Z M11.2261629,16.9335252 L11.2261629,18.97247 C11.2261629,19.0806715 11.2115826,20.1596163 10.6751797,20.741295 C10.4096641,21.0298321 10.1357073,21.0651319 10.0021821,21.0666667 L5.33263771,21.0666667 L5.33263771,16.9335252 L11.2261629,16.9335252 Z" id="Words" fill="#FFFFFF"></path>
                        <path d="M15.0465715,15.2741065 C14.032701,15.0989122 13.0681734,15.7798906 12.8930559,16.792917 C12.7178617,17.8067875 13.397996,18.7711616 14.4118665,18.9464326 C15.425737,19.1216269 16.389267,18.4413391 16.5645379,17.4274686 C16.7395787,16.4144422 16.060442,15.4493007 15.0465715,15.2741065 M29.311665,20.4038523 C29.2082214,21.00226 29.610255,21.5723511 30.2086626,21.675718 C30.8079912,21.7793151 31.3771614,21.3771281 31.4806051,20.7787204 C33.1656315,11.0267012 26.6282694,1.7568307 16.8763269,0.0713438849 C16.2779192,-0.0320997602 15.7079816,0.369166427 15.6045379,0.967574101 C15.5010176,1.5668259 15.9030511,2.13691703 16.5014588,2.24036067 C20.7805571,2.98081151 24.346984,5.37950695 26.6679432,8.66929113 C28.9879049,11.9598427 30.0505044,16.1236029 29.311665,20.4038523 M24.1143125,19.5055501 C24.0109456,20.1039578 24.4120583,20.6738954 25.0105427,20.7773391 C25.6106387,20.8810129 26.1798857,20.4788259 26.2833293,19.8804182 C27.4725475,12.9998043 22.8590991,6.45837506 15.9781782,5.26823597 C15.3796938,5.16479233 14.8098329,5.56605851 14.7062358,6.16531031 C14.6026387,6.76456211 15.0048257,7.33380911 15.6033101,7.43725276 C18.4486243,7.92899376 20.8142454,9.52231751 22.3579192,11.7089842 C23.898984,13.896188 24.6051327,16.6605429 24.1143125,19.5055501 M18.9165763,18.607248 C19.3979576,15.7938571 17.515713,13.1260393 14.7047778,12.6358331 C14.1063701,12.5323894 13.7044132,11.9614542 13.8078569,11.3630465 C13.911454,10.7637947 14.4813917,10.3626053 15.0797993,10.4659722 C19.0911567,11.1602264 21.7783893,14.9709122 21.0864372,18.9822695 C20.9829936,19.5806772 20.4129025,19.9827108 19.8136507,19.8791137 C19.215243,19.77567 18.8131327,19.2056556 18.9165763,18.607248" id="Icon" fill="#57C951"></path>
                    </g>
                </g>
            </g>
        </g>
    </g>
</svg>